<?xml version="1.0" standalone="no"?><!DOCTYPE svg PUBLIC "-//W3C//DTD SVG 1.1//EN" "http://www.w3.org/Graphics/SVG/1.1/DTD/svg11.dtd"><svg t="1542621122158" class="icon" style="" viewBox="0 0 1024 1024" version="1.1" xmlns="http://www.w3.org/2000/svg" p-id="3131" xmlns:xlink="http://www.w3.org/1999/xlink" width="128" height="128"><defs><style type="text/css"></style></defs><path d="M512 1024A512 512 0 1 1 1024 512 512.487619 512.487619 0 0 1 512 1024z m0-975.238095a463.238095 463.238095 0 1 0 463.238095 463.238095A463.725714 463.725714 0 0 0 512 48.761905z" fill="#97C9FF" p-id="3132"></path><path d="M362.788571 429.104762a228.205714 228.205714 0 0 1 11.702858-74.605714 121.904762 121.904762 0 0 1 32.670476-45.836191 146.285714 146.285714 0 0 1 48.761905-29.744762 178.468571 178.468571 0 0 1 58.514285-9.752381 150.186667 150.186667 0 0 1 103.375238 36.571429 123.367619 123.367619 0 0 1 41.447619 97.523809 113.615238 113.615238 0 0 1-10.727619 48.761905 215.04 215.04 0 0 1-44.860952 55.100953 611.961905 611.961905 0 0 0-45.836191 48.761904 97.52381 97.52381 0 0 0-17.066666 33.645715 175.542857 175.542857 0 0 0-4.876191 52.175238H476.891429a243.809524 243.809524 0 0 1 6.339047-60.952381 121.417143 121.417143 0 0 1 18.529524-39.984762 515.900952 515.900952 0 0 1 44.373333-48.761905A341.333333 341.333333 0 0 0 585.142857 438.857143a86.79619 86.79619 0 0 0 9.264762-44.860953A75.093333 75.093333 0 0 0 573.44 341.333333a79.481905 79.481905 0 0 0-61.44-22.918095q-90.697143 0-90.697143 107.76381z m178.956191 336.457143H475.428571v-69.729524h66.316191z" fill="#97C9FF" p-id="3133"></path></svg>