<?xml version="1.0" standalone="no"?><!DOCTYPE svg PUBLIC "-//W3C//DTD SVG 1.1//EN" "http://www.w3.org/Graphics/SVG/1.1/DTD/svg11.dtd"><svg t="1542364538782" class="icon" style="" viewBox="0 0 1072 1024" version="1.1" xmlns="http://www.w3.org/2000/svg" p-id="2691" xmlns:xlink="http://www.w3.org/1999/xlink" width="134" height="128"><defs><style type="text/css"></style></defs><path d="M531.504762 39.009524C258.438095 39.009524 34.133333 248.685714 34.133333 507.12381S253.561905 975.238095 531.504762 975.238095c273.066667 0 497.371429-209.67619 497.371428-468.114285 0-253.561905-224.304762-468.114286-497.371428-468.114286zM731.428571 638.780952c19.504762 19.504762 19.504762 48.761905 0 68.266667-19.504762 19.504762-48.761905 19.504762-68.266666 0L536.380952 580.266667l-131.657142 131.657143c-19.504762 19.504762-48.761905 19.504762-68.266667 0-19.504762-19.504762-19.504762-48.761905 0-68.266667l131.657143-131.657143-136.533334-131.657143c-19.504762-19.504762-19.504762-48.761905 0-68.266667 19.504762-19.504762 48.761905-19.504762 68.266667 0L531.504762 438.857143l131.657143-131.657143c19.504762-14.628571 48.761905-14.628571 68.266666 4.87619 19.504762 19.504762 19.504762 48.761905 0 68.266667l-131.657142 131.657143 131.657142 126.780952z" fill="#F63D31" p-id="2692"></path><path d="M731.428571 312.07619c-19.504762-19.504762-48.761905-19.504762-68.266666 0L531.504762 438.857143l68.266667 68.266667L731.428571 380.342857c19.504762-19.504762 19.504762-48.761905 0-68.266667zM331.580952 638.780952c-19.504762 19.504762-19.504762 48.761905 0 68.266667 19.504762 19.504762 48.761905 19.504762 68.266667 0l131.657143-131.657143-68.266667-68.266666-131.657143 131.657142z" fill="#FFFFFF" p-id="2693"></path><path d="M399.847619 307.2c-19.504762-19.504762-48.761905-19.504762-68.266667 0-19.504762 19.504762-19.504762 48.761905 0 68.266667l131.657143 131.657143 68.266667 68.266666 126.780952 126.780953c19.504762 19.504762 48.761905 19.504762 68.266667 0 19.504762-19.504762 19.504762-48.761905 0-68.266667l-126.780952-126.780952L531.504762 438.857143 399.847619 307.2z" fill="#FFFFFF" p-id="2694"></path></svg>