<?xml version="1.0" standalone="no"?><!DOCTYPE svg PUBLIC "-//W3C//DTD SVG 1.1//EN" "http://www.w3.org/Graphics/SVG/1.1/DTD/svg11.dtd"><svg t="1542620130585" class="icon" style="" viewBox="0 0 1194 1024" version="1.1" xmlns="http://www.w3.org/2000/svg" p-id="2579" xmlns:xlink="http://www.w3.org/1999/xlink" width="149.25" height="128"><defs><style type="text/css"></style></defs><path d="M170.666667 771.072h85.333333V853.333333a85.333333 85.333333 0 0 0 85.333333 85.333334h682.666667a85.333333 85.333333 0 0 0 85.333333-85.333334V170.666667a85.333333 85.333333 0 0 0-85.333333-85.333334H341.333333a85.333333 85.333333 0 0 0-85.333333 85.333334v175.530666H170.666667V170.666667a170.666667 170.666667 0 0 1 170.666666-170.666667h682.666667a170.666667 170.666667 0 0 1 170.666667 170.666667v682.666666a170.666667 170.666667 0 0 1-170.666667 170.666667H341.333333a170.666667 170.666667 0 0 1-170.666666-170.666667v-82.261333z m0 0h85.333333V853.333333a85.333333 85.333333 0 0 0 85.333333 85.333334h682.666667a85.333333 85.333333 0 0 0 85.333333-85.333334V170.666667a85.333333 85.333333 0 0 0-85.333333-85.333334H341.333333a85.333333 85.333333 0 0 0-85.333333 85.333334v175.530666H170.666667V170.666667a170.666667 170.666667 0 0 1 170.666666-170.666667h682.666667a170.666667 170.666667 0 0 1 170.666667 170.666667v682.666666a170.666667 170.666667 0 0 1-170.666667 170.666667H341.333333a170.666667 170.666667 0 0 1-170.666666-170.666667v-82.261333z" fill="#cdcdcd" p-id="2580"></path><path d="M548.864 181.589333a34.645333 34.645333 0 0 0-50.176 0.085334 36.693333 36.693333 0 0 0-2.986667 47.957333L734.72 474.88H35.84a35.84 35.84 0 0 0-35.413333 36.266667 35.84 35.84 0 0 0 35.413333 36.352h698.88L489.813333 798.464a37.888 37.888 0 0 0 5.973334 43.52 34.730667 34.730667 0 0 0 25.002666 10.496c10.581333 0 20.650667-4.352 28.330667-12.288l19.626667-19.968 53.845333-55.210667 10.154667-10.24 209.92-215.296a36.352 36.352 0 0 0 9.984-27.562666 37.546667 37.546667 0 0 0-9.898667-29.013334L548.864 181.589333z" fill="#cdcdcd" p-id="2581"></path></svg>