<?xml version="1.0" standalone="no"?><!DOCTYPE svg PUBLIC "-//W3C//DTD SVG 1.1//EN" "http://www.w3.org/Graphics/SVG/1.1/DTD/svg11.dtd"><svg t="1543537009933" class="icon" style="" viewBox="0 0 1024 1024" version="1.1" xmlns="http://www.w3.org/2000/svg" p-id="3977" xmlns:xlink="http://www.w3.org/1999/xlink" width="200" height="200"><defs><style type="text/css"></style></defs><path d="M406.64184519 369.49722706h36.03994549v335.68240408h-36.03994549zM506.06238446 369.49722706h36.03994547v335.68240408h-36.03994547zM605.34483965 369.49722706h36.03994547v335.68240408h-36.03994547z" fill="#FF2C2C" p-id="3978"></path><path d="M796.59129363 265.51991309H653.9504366v-36.17802956c0-36.86844997-30.10232993-66.97077991-66.97077991-66.97077992h-125.93268306c-36.86844997 0-66.97077991 30.10232993-66.97077991 66.97077992v36.17802956H251.57342077c-10.49439025 0-18.91751926 8.42312903-18.91751928 18.91751926s8.42312903 18.91751926 18.91751928 18.9175193h45.56774717L329.03859095 761.93218898c2.62359757 37.00653407 34.3829365 66.14227541 72.21797503 66.14227541h245.51349835c37.97312263 0 69.73246157-28.99765728 72.21797504-66.14227541l32.0355071-458.43915327h45.56774716c10.49439025 0 18.91751926-8.42312903 18.91751928-18.91751926s-8.42312903-19.05560336-18.91751928-19.05560336z m-366.47515443-36.03994548c0-17.12242621 13.9464923-30.93083443 30.93083443-30.93083444h125.93268306c17.12242621 0 30.93083443 13.9464923 30.93083444 30.93083444v36.17802956h-187.79435193v-36.17802956z m252.97003877 530.24287604c-1.24275675 18.22709886-17.26051028 32.58784341-36.31611364 32.58784343H401.39465008c-19.05560336 0-35.07335691-14.36074457-36.31611365-32.58784343l-31.75933894-456.09172384H714.98360098l-31.89742301 456.09172384z" fill="#FF2C2C" p-id="3979"></path></svg>